<svg width="338" height="271" fill="none" xmlns="http://www.w3.org/2000/svg"><g clip-path="url(#clip0)"><path opacity=".3" d="M168.9 268.9l-42.3-23.3v-67.3l42.3 23.4v67.2zm42.2 90.6l-42.2-23.3v-67.3l42.2 23.4v67.2zm42.2-43.8l-42.2-23.4v-67.2l42.2 23.3v67.3zm-84.4-181.2l-42.3-23.4V43.9l42.3 23.3v67.3zm-42.3 43.8L84.4 155V87.7l42.2 23.4v67.2zm-84.4 67.3L0 222.2V155l42.2 23.3v67.3zm168.9-20.5l42.2-23.4v-67.2l-42.2 23.3v67.3zm0-134.5l42.2-23.4V0l-42.2 23.4v67.2z" fill="#003DA5"/><path opacity=".3" d="M253.3 134.5l42.2-23.4V43.9l-42.2 23.3v67.3z" fill="#5972C8"/><path opacity=".3" d="M295.5 178.3l42.2-23.3V87.7l-42.2 23.4v67.2z" fill="#003DA5"/><path opacity=".3" d="M168.9 201.7l42.2-23.4-42.2-23.8-42.3 23.8 42.3 23.4zm126.6 46.7l42.2-23.3-42.2-23.8-42.2 23.8 42.2 23.3zm-84.4-90.6l42.2-23.3-42.2-23.8-42.2 23.8 42.2 23.3zM84.4 268.9l42.2-23.3-42.2-23.8-42.2 23.8 42.2 23.3z" fill="#5972C8"/><path opacity=".3" d="M42.2 178.3L84.4 155l-42.2-23.8L0 155l42.2 23.3z" fill="#003DA5"/></g><defs><clipPath id="clip0"><path fill="#fff" d="M0 0h337.7v271H0z"/></clipPath></defs></svg>