<svg width="338" height="338" fill="none" xmlns="http://www.w3.org/2000/svg"><g clip-path="url(#clip0)"><path opacity=".3" d="M169.1 268.9l42.3-23.3v-67.3l-42.3 23.4v67.2zm-42.2 90.6l42.2-23.3v-67.3l-42.2 23.4v67.2zm-42.2-43.8l42.2-23.4v-67.2l-42.2 23.3v67.3zM.3 362.6l42.2-23.4V272L.3 295.3v67.3zm168.8-228.1l42.3-23.4V43.9l-42.3 23.3v67.3zm42.3 43.8l42.2-23.3V87.7l-42.2 23.4v67.2zm84.4 67.3l42.2-23.4V155l-42.2 23.3v67.3zm-168.9-20.5l-42.2-23.4v-67.2l42.2 23.3v67.3zm0-134.5L84.7 67.2V0l42.2 23.4v67.2z" fill="#003DA5"/><path opacity=".3" d="M84.7 134.5l-42.2-23.4V43.9l42.2 23.3v67.3z" fill="#5972C8"/><path opacity=".3" d="M42.5 178.3L.3 155V87.7l42.2 23.4v67.2z" fill="#003DA5"/><path opacity=".3" d="M169.1 201.7l-42.2-23.4 42.2-23.8 42.3 23.8-42.3 23.4zM42.5 248.4L.3 225.1l42.2-23.8 42.2 23.8-42.2 23.3zm84.4-90.6l-42.2-23.3 42.2-23.8 42.2 23.8-42.2 23.3zm126.7 111.1l-42.2-23.3 42.2-23.8 42.2 23.8-42.2 23.3z" fill="#5972C8"/><path opacity=".3" d="M295.8 178.3L253.6 155l42.2-23.8L338 155l-42.2 23.3z" fill="#003DA5"/></g><defs><clipPath id="clip0"><path fill="#fff" transform="matrix(-1 0 0 1 338 0)" d="M0 0h338v338H0z"/></clipPath></defs></svg>