<svg width="270" height="286" fill="none" xmlns="http://www.w3.org/2000/svg"><g opacity=".3"><path d="M168.664 176.827v-52.368l34.005-19.043v52.678l-34.005 18.733zm.681-105.417V19.044L203.35 0v52.678l-34.005 18.733z" fill="#003DA5"/><path d="M202.67 105.416V53.048l34.005-19.043v52.678l-34.005 18.733z" fill="#5972C8"/><path d="M235.995 139.421V87.053L270 68.01v52.679l-34.005 18.732zm-100.656 72.092v-52.368l-34.005-19.043v52.678l34.005 18.733zm0-106.097V53.048l-34.005-19.043v52.678l34.005 18.733zm-34.003 34.686V87.734L67.331 68.69v52.678l34.005 18.733zm-67.331 52.367v-52.368L0 121.058v52.679l34.005 18.732zm135.34 90.454v-52.368l-34.005-19.043v52.679l34.005 18.732zm33.325-34.685V195.87l-34.005-19.043v52.678l34.005 18.733zm66.65 37.405v-52.368l-34.005-19.042v52.678l34.005 18.732z" fill="#003DA5"/><path d="M135.339 105.576l33.507-19.203 33.823 19.203-33.823 18.883-33.507-18.883zm33.325 34.685l-33.507-19.203-33.823 19.203 33.823 18.883 33.507-18.883z" fill="#5972C8"/><path d="M67.33 121.219l-33.507-19.203L0 121.219l33.823 18.882 33.507-18.882z" fill="#003DA5"/><path d="M201.311 173.587l33.507-19.203 33.823 19.203-33.823 18.883-33.507-18.883zM34.005 192.629l33.508-19.203 33.823 19.203-33.823 18.883-33.508-18.883z" fill="#5972C8"/></g></svg>