<svg data-name="Layer 1" xmlns="http://www.w3.org/2000/svg" viewBox="0 0 200 200"><rect width="200" height="200" rx="14" ry="14" fill="#666"/><path d="M73.84 160.63c53.21 0 82.31-44.08 82.31-82.31 0-1.25 0-2.5-.08-3.74a58.81 58.81 0 0014.43-15 57.81 57.81 0 01-16.61 4.55 29 29 0 0012.72-16 58 58 0 01-18.37 7 29 29 0 00-49.3 26.38 82.15 82.15 0 01-59.63-30.17 29 29 0 009 38.62 28.67 28.67 0 01-13.1-3.62v.37a28.94 28.94 0 0023.21 28.36 29 29 0 01-13.06.5 29 29 0 0027 20.09A58 58 0 0136.4 148a58.87 58.87 0 01-6.9-.4 81.93 81.93 0 0044.34 13" fill="#fff"/></svg>