<svg xmlns="http://www.w3.org/2000/svg" viewBox="0 0 39.86 39.86"><defs><style>.cls-1{fill:#78be43;}.cls-2{fill:#fff;}</style></defs><title>78BE20_Solid_Asset 845</title><g id="Layer_2" data-name="Layer 2"><g id="_78BE20" data-name="78BE20"><path class="cls-1" d="M39.86,19.93A19.93,19.93,0,1,1,19.93,0,19.93,19.93,0,0,1,39.86,19.93"/><path class="cls-2" d="M17.33,32.06a3.28,3.28,0,0,1-2.61-1.28,3.24,3.24,0,0,1-3-3.2,3,3,0,0,1,0-.41A3.23,3.23,0,0,1,8.93,24a3.12,3.12,0,0,1,.27-1.28A3.2,3.2,0,0,1,7.69,20v-.18a3.2,3.2,0,0,1,1.51-2.7,3.12,3.12,0,0,1-.27-1.28,3.23,3.23,0,0,1,2.79-3.17,3.19,3.19,0,0,1,0-.41,3.24,3.24,0,0,1,3-3.2,3.29,3.29,0,0,1,5.77,1.14h-.37v1h.48v2.06h-.48v1h.48v2.38H20a.5.5,0,0,0-.37.17V11A2.24,2.24,0,0,0,17.33,8.8h0a2.28,2.28,0,0,0-1.92,1,.5.5,0,0,1-.42.23h0a2.24,2.24,0,0,0-2.25,2.21,2.14,2.14,0,0,0,.12.71.5.5,0,0,1-.47.67h-.16a2.24,2.24,0,0,0-2.25,2.21,2.15,2.15,0,0,0,.18.86l-.45.13a.5.5,0,0,0,.16,1l.16,0,.24-.07a.48.48,0,0,1-.14.09,2.21,2.21,0,0,0-1.38,2V20a2.21,2.21,0,0,0,1.38,2l.1.05-.25,0H9.81a.5.5,0,0,0-.11,1l.41.07a2.15,2.15,0,0,0-.19.89,2.24,2.24,0,0,0,2.25,2.21h.16a.5.5,0,0,1,.47.67,2.13,2.13,0,0,0-.12.71,2.24,2.24,0,0,0,2.25,2.21h0a.5.5,0,0,1,.42.23,2.28,2.28,0,0,0,4.12-.64.5.5,0,0,0,.44.26h.53a3.26,3.26,0,0,1-3.17,2.42m2.27-3.26V27h0a.5.5,0,1,0,0-1h0V22.55l.48,0h0a.5.5,0,0,0,.5-.5V23h-.48v1h.48v4.65H20a.5.5,0,0,0-.37.17m1-6.74a.5.5,0,0,0-.5-.5h0l-.5,0V17.48a.5.5,0,0,0,.37.17h.63v2.27h-.48v1h.48v1.14"/><path class="cls-2" d="M23.42,31.08a2,2,0,0,1-1.89-1.43H20a.5.5,0,0,1-.44-.26.49.49,0,0,1-.06-.24.5.5,0,0,1,.5-.5h1.56a2,2,0,0,1,3.84.5h0a1.94,1.94,0,0,1-2,1.93m-1-1.93a1,1,0,1,0,1-.94.94.94,0,0,0-1,.94h0m2.9,0h0m3.4-.44a2,2,0,0,1-1.87-1.38h.49v-1h-.52a2,2,0,0,1,3.85.45h0a1.94,1.94,0,0,1-2,1.94m0-2.87a.94.94,0,1,0,1,.93.95.95,0,0,0-1-.93m2,.93h0m-4.09-4.51a1.93,1.93,0,0,1-.42-3.82v.47h1v-.43a1.94,1.94,0,0,1,1.37,1.85h0a1.94,1.94,0,0,1-2,1.93m0-2.87a.94.94,0,1,0,1,.94.95.95,0,0,0-1-.94m2,.94h0m-5.16-1.24a2,2,0,0,1-1.89-1.43H20a.5.5,0,1,1,0-1h1.56a2,2,0,0,1,3.84.5h0a1.94,1.94,0,0,1-2,1.93m-1-1.93a1,1,0,1,0,1-.94.94.94,0,0,0-1,.94h0M29.76,19a1.94,1.94,0,1,1,2.42-1.88h0A1.94,1.94,0,0,1,30.76,19V18.6h-1V19m.46-2.81a.94.94,0,1,0,1,.94.94.94,0,0,0-1-.94m2,.94h0m-6.8,0h0m-.5-4.48A2,2,0,0,1,23,11.21h.55v-1H23a2,2,0,0,1,3.83.52h0a1.94,1.94,0,0,1-2,1.93m0-2.87a.93.93,0,1,0,1,.94.94.94,0,0,0-1-.94m2,.94h0"/><path class="cls-2" d="M27.39,27.32H25.06L21.74,24H20.12V23h2l3.32,3.33h1.91v1m3.37-3.07h-5.7l-3.32-3.33H20.12v-1h2l3.32,3.33h4.28V18.6h1v5.65M27.21,18.9h-1V14.28H20.12v-1h7.08V18.9m-7.08-4.63h0m3.41-3.06H20.12v-1h3.41v1"/><path class="cls-2" d="M15.33,27.95a.5.5,0,0,1-.4-.8h0l0,0L15,27a4.09,4.09,0,0,0,.21-.39,2.93,2.93,0,0,0,.3-1.21,1.71,1.71,0,0,0-.42-1.15,5.34,5.34,0,0,1-2.26.48h0a.5.5,0,0,1,0-1A4.22,4.22,0,0,0,15,23.19a3.82,3.82,0,0,0,1.48-1.63,8.5,8.5,0,0,1-.95-.67c-1.12-.91-2-2-2.83-2.6A2.86,2.86,0,0,0,11,17.62a2.93,2.93,0,0,0-.75.11L10,17.8l-.16,0a.5.5,0,0,1-.16-1l.45-.13a3.82,3.82,0,0,1,.86-.1h0a3.56,3.56,0,0,1,1.82.52,2.6,2.6,0,0,1,.84-1.2,3,3,0,0,1,1.85-.65h.11a6.93,6.93,0,0,0,.09-1.11,4.32,4.32,0,0,0-.33-1.81h0a.5.5,0,0,1,.21-.67.51.51,0,0,1,.23-.06.5.5,0,0,1,.44.27,5.13,5.13,0,0,1,.44,2.27,8,8,0,0,1-.11,1.32,3,3,0,0,1,1.06.74.5.5,0,0,1-.74.68,1.9,1.9,0,0,0-1.42-.63h0a2,2,0,0,0-1.22.43,1.58,1.58,0,0,0-.59,1.06c.21.17.4.36.6.55a14.66,14.66,0,0,0,3,2.53,5.63,5.63,0,0,0,2.33.69l.5,0h0a.5.5,0,0,1,.5.5h0a.5.5,0,0,1-.5.5h0l-.48,0A6.66,6.66,0,0,1,17.38,22,4.94,4.94,0,0,1,16,23.74a2.73,2.73,0,0,1,.56,1.67,4.31,4.31,0,0,1-.81,2.33.5.5,0,0,1-.4.2m0-15.57h0M19.61,27H18.32a.5.5,0,0,1,0-1h1.29a.5.5,0,1,1,0,1m-9-3.84h0a3.86,3.86,0,0,1-.51,0L9.7,23a.5.5,0,0,1,.11-1h.11l.25,0a2.91,2.91,0,0,0,.46,0,1.42,1.42,0,0,0,1.25-.57,1.75,1.75,0,0,0,.29-.7h0a.5.5,0,0,1,.49-.44h.06a.5.5,0,0,1,.44.56,2.6,2.6,0,0,1-.2.68,2.42,2.42,0,0,1-1,1.13,2.63,2.63,0,0,1-1.34.33"/></g></g></svg>