<svg xmlns="http://www.w3.org/2000/svg" viewBox="0 0 39.86 39.86"><defs><style>.cls-1{fill:#78be43;}.cls-2{fill:#fff;}</style></defs><title>78BE20_Solid_Asset 869</title><g id="Layer_2" data-name="Layer 2"><g id="_78BE20" data-name="78BE20"><path class="cls-1" d="M39.86,19.93A19.93,19.93,0,1,1,19.93,0,19.93,19.93,0,0,1,39.86,19.93"/><path class="cls-2" d="M22,33h-5.2a.5.5,0,0,1-.5-.5V24.15L7.53,11.68a.5.5,0,0,1,.41-.79h23.8a.5.5,0,0,1,.39.81L22.54,24v8.53a.5.5,0,0,1-.5.5m-4.79-9.29a.5.5,0,0,1,.09.29v8h4.2v-8.2a.5.5,0,0,1,.11-.31l9.07-11.59H8.9l8.34,11.81-.41.29.41-.29"/></g></g></svg>