<svg xmlns="http://www.w3.org/2000/svg" viewBox="0 0 39.7 39.7"><defs><style>.cls-1{fill:#78be43;}.cls-2{fill:#fff;}</style></defs><title>78BE20_Solid_Asset 841</title><g id="Layer_2" data-name="Layer 2"><g id="_78BE20" data-name="78BE20"><path class="cls-1" d="M39.7,19.85A19.85,19.85,0,1,1,19.85,0,19.85,19.85,0,0,1,39.7,19.85"/><path class="cls-2" d="M29.18,30.82H10.92a2.8,2.8,0,0,1-2.28-1.64.5.5,0,0,1-.16-.26,2.76,2.76,0,0,1-.08-.47V11.05a.41.41,0,0,1,0-.06V10.9a2.79,2.79,0,0,1,2.53-2.78h15.3a.5.5,0,0,1,.5.5v4l2.46,0a.5.5,0,0,1,.49.5V30.32a.5.5,0,0,1-.5.5m-18-1H28.68V13.59h-2V25.83a.5.5,0,0,1-.5.5l-15,.1a1.69,1.69,0,1,0-.12,3.38h.12M9.4,11.46h0V26.08a2.78,2.78,0,0,1,1.79-.65L24,25.35h1.71V9.11H11.07A1.79,1.79,0,0,0,9.4,10.89V11a.55.55,0,0,1,0,.1v.33M26.22,25.83h0M11,8.61h0m.16,0h0v0m11.27,8.24H12.87a.5.5,0,0,1-.5-.5V12.68a.5.5,0,0,1,.5-.5h9.59a.5.5,0,0,1,.5.5v3.67a.5.5,0,0,1-.5.5m0-.5h0v0m-9.09-3.17v2.67H22V13.18H13.37"/></g></g></svg>