<svg xmlns="http://www.w3.org/2000/svg" viewBox="0 0 39.7 39.7"><defs><style>.cls-1{fill:#53565a;}.cls-2{fill:#fff;}</style></defs><title>53565A_Solid_Asset 1431</title><g id="Layer_2" data-name="Layer 2"><g id="_53565A" data-name="53565A"><path class="cls-1" d="M39.7,19.85A19.85,19.85,0,1,1,19.85,0,19.85,19.85,0,0,1,39.7,19.85"/><path class="cls-2" d="M21.17,29.17H18.53a1.28,1.28,0,0,1-1.12-.67h-8a1.84,1.84,0,0,1-1.84-1.84V14.84a.37.37,0,0,1,.37-.37h.65v9.25a2.21,2.21,0,0,0,2.22,2.21,11.12,11.12,0,0,1,6.46,2v0a1.28,1.28,0,0,1,.08-.43c-2-1.75-4.95-2-6.53-2h0a1.72,1.72,0,0,1-1.72-1.72V12.17a.37.37,0,0,1,.74,0V23.72a1,1,0,0,0,.29.69,1,1,0,0,0,.69.28h0c1.68,0,4.77.29,7,2.15a1.28,1.28,0,0,1,.77-.26h0A11.86,11.86,0,0,0,11.15,24H11a.49.49,0,0,1-.5-.49V11a.49.49,0,0,1,.47-.49h.25c1.11,0,5.61.21,8.66,3.46,3-3.25,7.55-3.46,8.66-3.46h.25a.49.49,0,0,1,.47.49V23.5a.49.49,0,0,1-.15.36.48.48,0,0,1-.34.14h-.17a11.93,11.93,0,0,0-7.43,2.6h0a1.28,1.28,0,0,1,.77.26c2.19-1.87,5.29-2.16,7-2.16h0a1,1,0,0,0,.69-.29,1,1,0,0,0,.29-.69V12.17a.37.37,0,0,1,.74,0V23.72a1.72,1.72,0,0,1-1.72,1.72h0c-1.58,0-4.52.26-6.53,2a1.28,1.28,0,0,1,.08.43v.05a11.11,11.11,0,0,1,6.46-2,2.21,2.21,0,0,0,2.21-2.21V14.47h.65a.37.37,0,0,1,.37.37V26.65a1.84,1.84,0,0,1-1.84,1.84h-8a1.28,1.28,0,0,1-1.12.67m7.07-17.63c-1.36,0-5.34.45-7.89,3.39V26a12.48,12.48,0,0,1,7.89-3V11.53m-16.77,0V23a12.49,12.49,0,0,1,7.89,3v-11c-2.55-3-6.54-3.35-7.89-3.39"/></g></g></svg>