<svg xmlns="http://www.w3.org/2000/svg" viewBox="0 0 39.7 39.7"><defs><style>.cls-1{fill:#78be43;}.cls-2{fill:#fff;}</style></defs><title>78BE20_Solid_Asset 874</title><g id="Layer_2" data-name="Layer 2"><g id="_78BE20" data-name="78BE20"><path class="cls-1" d="M19.85,39.7A19.85,19.85,0,1,0,0,19.85,19.85,19.85,0,0,0,19.85,39.7"/><path class="cls-2" d="M9.15,33.07a1.42,1.42,0,0,1-1-2.43l2.92-3a13.5,13.5,0,1,1,2.08,1.94l-3,3.06a1.41,1.41,0,0,1-1,.42m12.12-26A11.65,11.65,0,1,0,32.91,18.76,11.65,11.65,0,0,0,21.27,7.11"/><path class="cls-2" d="M21.27,28.57a9.82,9.82,0,0,1-9.82-9.82,10,10,0,0,1,.08-1.22l.54,0c.32,0,.59.06.64.35.11.62-.11,1.24.23,1.92s1,1,1.35,1.35.37,1,.79,1h0c.35,0,.51-.28.6-.28s0,0,0,0a3.12,3.12,0,0,0,.39,1.87c.29.84.63,1.29.88,1.29a.25.25,0,0,0,.22-.16c.23-.42,0-1.35.54-1.7s1.52-1.37,2.4-1.37a1,1,0,0,1,.36.07c.17.61.42.89.32,1.08s-.16.79.65.88c.14.08.1.46.21,1A2.54,2.54,0,0,0,22.24,26c.35.54.73.91.93.91h0c.2,0,.6-.76-.17-1.24s-.72-.79-.71-1.05,0-.35.06-.35.08,0,.16.13a1.82,1.82,0,0,0,1,.53l.12,0c.31-.11,1.35-1.13.45-2.06-.72-.79.71-1.22,1.65-1.22h.21c.91,0,1.63-2.24,1.4-3.44-.08-.39-.12-.54-.3-.68s-.28-.87.31-.9h.08c.56,0,1,.27,1,.62a1.48,1.48,0,0,0,.2,1l.05,0c.18,0,.64-.4.42-1.1-.06-.84.28-.78.65-1.37,0,0,.24-.44.57-.95A9.8,9.8,0,0,1,31,17.65a4.69,4.69,0,0,1-.94.46,1.12,1.12,0,0,0-.76.76c0,.11,0,.52.16.52s.06,0,.09-.07c.16-.23.31-.22.31-.47s.16-.18.32-.18h.26a1.38,1.38,0,0,0,.6-.2h0c0,.09,0,.18,0,.28a9.82,9.82,0,0,1-9.82,9.82m8.47-14.78-.29-.07c-.62-.17-.54-1.39-1.38-1.5H28a1.75,1.75,0,0,0-1,.54,1.74,1.74,0,0,1-1,.54l-.15,0-.27,0a1.74,1.74,0,0,0-.6.12,1.55,1.55,0,0,1-.49.12.73.73,0,0,1-.44-.16c-.62-.45-.9-.25-1.38-.54a1.53,1.53,0,0,0-.76-.16,4.68,4.68,0,0,0-2.09.58,2.23,2.23,0,0,1-1,.27,2,2,0,0,1-1.58-.77,3.74,3.74,0,0,0-2.58-1h-.12a9.81,9.81,0,0,1,15.3,2.07"/></g></g></svg>