<svg xmlns="http://www.w3.org/2000/svg" viewBox="0 0 40.2 40.2"><defs><style>.cls-1{fill:#666766;}.cls-2{fill:#fff;}</style></defs><title>666666_Solid_Asset 404</title><g id="Layer_2" data-name="Layer 2"><g id="_666666" data-name="666666"><path class="cls-1" d="M40.2,20.1A20.1,20.1,0,1,1,20.1,0,20.1,20.1,0,0,1,40.2,20.1"/><path class="cls-2" d="M20.1,32.71a12.6,12.6,0,0,1-.23-25.19l.16,0,.15,0A12.6,12.6,0,0,1,32.7,20.11h0a12.6,12.6,0,0,1-12.6,12.6m-9.41-5.81a11.74,11.74,0,0,0,1.21,1.42,11.57,11.57,0,0,0,6.21,3.23,9.73,9.73,0,0,1-2.7-3.48q-.27-.56-.51-1.17H10.69m14.69,0q-.2.51-.42,1a9.87,9.87,0,0,1-2.76,3.63,11.57,11.57,0,0,0,6.1-3.21,11.73,11.73,0,0,0,1.21-1.42H25.38m-4.85,0v4.47a7.68,7.68,0,0,0,3.52-3.9c.09-.18.17-.37.25-.57H20.53m-4.55,0q.16.38.33.73a7.8,7.8,0,0,0,3.22,3.64V26.89H16m9.75-1h4.42a11.54,11.54,0,0,0,1.54-5.4H26.57a19.43,19.43,0,0,1-.84,5.4m-5.2,0h4.15a18.23,18.23,0,0,0,.89-5.4h-5v5.4m-4.92,0h3.92v-5.4H14.72a18.3,18.3,0,0,0,.89,5.4m-5.56,0h4.51a19.43,19.43,0,0,1-.84-5.4H8.51A11.52,11.52,0,0,0,10,25.89m16.52-6.4h5.12a11.54,11.54,0,0,0-1.57-5.24h-4.4a19.35,19.35,0,0,1,.86,5.24m-6,0h5a18.14,18.14,0,0,0-.91-5.24H20.53v5.24m-5.81,0h4.81V14.25h-3.9a18.14,18.14,0,0,0-.91,5.24m-6.2,0h5.2a19.31,19.31,0,0,1,.86-5.24H10.09a11.53,11.53,0,0,0-1.57,5.24m16.83-6.24h4.1a11.74,11.74,0,0,0-1.15-1.34A11.57,11.57,0,0,0,22.2,8.7a9.69,9.69,0,0,1,2.64,3.38c.18.37.36.76.52,1.17m-4.82,0h3.74q-.16-.37-.33-.72a7.52,7.52,0,0,0-3.41-3.67v4.39m-4.52,0h3.52V9l0,0a8.18,8.18,0,0,0-3.39,4.07l-.08.2m-5.26,0h4.18c.08-.21.16-.41.25-.6a10.08,10.08,0,0,1,2.93-4,11.61,11.61,0,0,0-7.36,4.57M32.7,20.11h0"/></g></g></svg>