<?xml version="1.0" encoding="UTF-8"?>
<svg width="49px" height="49px" viewBox="0 0 49 49" version="1.1" xmlns="http://www.w3.org/2000/svg" xmlns:xlink="http://www.w3.org/1999/xlink">
    <!-- Generator: Sketch 57.1 (83088) - https://sketch.com -->
    <title>Admission_53565A_Outlined</title>
    <desc>Created with Sketch.</desc>
    <g id="Admission_53565A_Outlined" stroke="none" stroke-width="1" fill="none" fill-rule="evenodd">
        <path d="M15.06735,13.8333333 C15.06735,13.557191 14.8434924,13.3333333 14.56735,13.3333333 C14.2912076,13.3333333 14.06735,13.557191 14.06735,13.8333333 L14.06735,22.6323333 C14.06735,22.9084757 14.2912076,23.1323333 14.56735,23.1323333 L22.7340167,23.1323333 C23.010159,23.1323333 23.2340167,22.9084757 23.2340167,22.6323333 C23.2340167,22.356191 23.010159,22.1323333 22.7340167,22.1323333 L15.06735,22.1323333 L15.06735,13.8333333 Z" id="Stroke-5878" fill="#53565A" fill-rule="nonzero"></path>
        <path d="M26.2340167,22.0833333 C25.9578743,22.0833333 25.7340167,22.307191 25.7340167,22.5833333 C25.7340167,22.8594757 25.9578743,23.0833333 26.2340167,23.0833333 L34.4006833,23.0833333 C34.6768257,23.0833333 34.9006833,22.8594757 34.9006833,22.5833333 L34.9006833,13.8333333 C34.9006833,13.557191 34.6768257,13.3333333 34.4006833,13.3333333 C34.124541,13.3333333 33.9006833,13.557191 33.9006833,13.8333333 L33.9006833,22.0833333 L26.2340167,22.0833333 Z" id="Stroke-5879" fill="#53565A" fill-rule="nonzero"></path>
        <path d="M11.56735,12.5833333 L37.4006833,12.5833333 L37.4006833,15.0833333 L36.1506833,15.0833333 C35.874541,15.0833333 35.6506833,15.307191 35.6506833,15.5833333 C35.6506833,15.8594757 35.874541,16.0833333 36.1506833,16.0833333 L37.9006833,16.0833333 C38.1768257,16.0833333 38.4006833,15.8594757 38.4006833,15.5833333 L38.4006833,12.0833333 C38.4006833,11.807191 38.1768257,11.5833333 37.9006833,11.5833333 L11.06735,11.5833333 C10.7912076,11.5833333 10.56735,11.807191 10.56735,12.0833333 L10.56735,15.5833333 C10.56735,15.8594757 10.7912076,16.0833333 11.06735,16.0833333 L12.81735,16.0833333 C13.0934924,16.0833333 13.31735,15.8594757 13.31735,15.5833333 C13.31735,15.307191 13.0934924,15.0833333 12.81735,15.0833333 L11.56735,15.0833333 L11.56735,12.5833333 Z" id="Stroke-5880" fill="#53565A" fill-rule="nonzero"></path>
        <path d="M22.0177601,27.2356339 C21.7909803,27.6118787 21.5650412,28.0447738 21.3545145,28.5292675 C20.0034321,31.6385673 19.916897,35.1261901 21.9245549,38.655793 C22.061085,38.8958224 22.3663468,38.9797252 22.6063763,38.8431951 C22.8464057,38.706665 22.9303086,38.4014032 22.7937785,38.1613737 C20.9580742,34.9340774 21.0365774,31.7701649 22.2716694,28.9277983 C22.4638941,28.485424 22.6694744,28.0915359 22.874214,27.7518574 C22.9947973,27.5518006 23.0862278,27.4168883 23.1341629,27.3527539 C23.198761,27.2663253 23.2336667,27.1613185 23.2336667,27.0534167 L23.2336667,19.66725 C23.2336667,18.8901611 23.7631965,18.4201152 24.4838333,18.4198747 C25.2044676,18.4196348 25.7336667,18.8892695 25.7336667,19.66725 L25.7336667,26.66725 C25.7336667,26.9433924 25.9575243,27.16725 26.2336667,27.16725 C26.509809,27.16725 26.7336667,26.9433924 26.7336667,26.66725 L26.7336667,19.66725 C26.7336667,18.3085777 25.73178,17.4194589 24.4835,17.4198747 C23.2355512,17.420291 22.2336667,18.3096305 22.2336667,19.66725 L22.2336667,26.89528 C22.1740958,26.9835803 22.1010763,27.097406 22.0177601,27.2356339 Z" id="Stroke-5881" fill="#53565A" fill-rule="nonzero"></path>
        <path d="M32.2593515,22.6888079 C32.2668495,22.7235522 32.2808368,22.810145 32.2957449,22.948862 C32.4972142,24.8234984 32.1165643,27.7522892 30.6611472,31.7587828 C30.5482633,32.0696176 30.4398997,32.3908493 30.3359252,32.7216062 C29.935041,33.9968728 29.6143251,35.3592648 29.3654143,36.7211065 C29.2783607,37.1973942 29.2064461,37.6398575 29.1487307,38.0373971 C29.113923,38.2771505 29.0914814,38.4495869 29.0804867,38.5435698 C29.0484007,38.8178417 29.2447312,39.0661939 29.5190031,39.09828 C29.7932751,39.130366 30.0416273,38.9340355 30.0737133,38.6597635 C30.0836668,38.5746803 30.104921,38.4113676 30.1383556,38.1810723 C30.1943775,37.7951973 30.2643451,37.364713 30.3491181,36.9009032 C30.59114,35.5767522 30.9027241,34.2531515 31.2899005,33.0214915 C31.3896037,32.7043222 31.4933138,32.3968849 31.601068,32.1001753 C33.107576,27.953038 33.5081074,24.8712759 33.2900194,22.8420061 C33.2713409,22.6682058 33.2517416,22.5468703 33.2368485,22.4778587 C33.1785965,22.2079304 32.9125537,22.0363328 32.6426254,22.0945848 C32.372697,22.1528368 32.2010995,22.4188796 32.2593515,22.6888079 Z" id="Stroke-5882" fill="#53565A" fill-rule="nonzero"></path>
        <path d="M23.2340167,25.9922167 C23.2340167,26.268359 23.010159,26.4922167 22.7340167,26.4922167 L18.6880167,26.4922167 C17.4012591,26.4922167 16.5676294,25.5175806 16.5701371,24.311175 C16.5726518,23.106809 17.4075977,22.1322167 18.6880167,22.1322167 L22.7340167,22.1322167 C23.010159,22.1322167 23.2340167,22.3560743 23.2340167,22.6322167 L23.2340167,25.9922167 Z M22.2340167,23.1322167 L18.6880167,23.1322167 C17.9968662,23.1322167 17.5715669,23.6286482 17.5701334,24.3132583 C17.5687143,24.9978732 17.9915381,25.4922167 18.6880167,25.4922167 L22.2340167,25.4922167 L22.2340167,23.1322167 Z" id="Stroke-5883" fill="#53565A" fill-rule="nonzero"></path>
        <path d="M21.56455,28.8509333 L20.10855,28.8509333 C19.4078907,28.8509333 18.9804124,28.3550127 18.9801749,27.671343 C18.9799375,26.9876746 19.4070026,26.4921 20.10855,26.4921 L22.73355,26.4921 C23.0096924,26.4921 23.23355,26.2682424 23.23355,25.9921 C23.23355,25.7159576 23.0096924,25.4921 22.73355,25.4921 L20.10855,25.4921 C18.818889,25.4921 17.9797562,26.4658459 17.9801749,27.6716903 C17.9805938,28.8771952 18.8199454,29.8509333 20.10855,29.8509333 L21.56455,29.8509333 C21.8406924,29.8509333 22.06455,29.6270757 22.06455,29.3509333 C22.06455,29.074791 21.8406924,28.8509333 21.56455,28.8509333 Z" id="Stroke-5884" fill="#53565A" fill-rule="nonzero"></path>
        <path d="M24.5,49 C38.0309764,49 49,38.0309764 49,24.5 C49,10.9690236 38.0309764,0 24.5,0 C10.9690236,0 0,10.9690236 0,24.5 C0,38.0309764 10.9690236,49 24.5,49 Z M24.5,48 C11.5213084,48 1,37.4786916 1,24.5 C1,11.5213084 11.5213084,1 24.5,1 C37.4786916,1 48,11.5213084 48,24.5 C48,37.4786916 37.4786916,48 24.5,48 Z" id="Oval-Copy" fill="#53565A" fill-rule="nonzero"></path>
    </g>
</svg>