<?xml version="1.0" encoding="UTF-8"?>
<svg width="49px" height="50px" viewBox="0 0 49 50" version="1.1" xmlns="http://www.w3.org/2000/svg" xmlns:xlink="http://www.w3.org/1999/xlink">
    <!-- Generator: Sketch 57 (83077) - https://sketch.com -->
    <title>Alarm Clock_53565A_Outlined</title>
    <desc>Created with Sketch.</desc>
    <g id="Page-1" stroke="none" stroke-width="1" fill="none" fill-rule="evenodd">
        <g id="Exam-Calendar-Icons" transform="translate(-200.000000, -196.000000)" fill="#53565A" fill-rule="nonzero">
            <g id="Alarm-Clock_53565A_Outlined" transform="translate(200.000000, 196.500000)">
                <path d="M19.2410969,30.072251 C19.0048577,30.2152393 18.9292628,30.5226639 19.072251,30.7589031 C19.2152393,30.9951423 19.5226639,31.0707372 19.7589031,30.927749 L25.7589031,27.2961362 C25.9085662,27.2055498 26,27.0433299 26,26.8683872 L26,18.5 C26,18.2238576 25.7761424,18 25.5,18 C25.2238576,18 25,18.2238576 25,18.5 L25,26.5865667 L19.2410969,30.072251 Z" id="Stroke-5900"></path>
                <path d="M36,25.4993457 C36,31.8503133 30.8506196,37 24.5,37 C18.1493804,37 13,31.8503133 13,25.4993457 C13,19.1486092 18.1491491,14 24.5,14 C30.8508509,14 36,19.1486092 36,25.4993457 Z M35,25.4993457 C35,19.7009174 30.2985896,15 24.5,15 C18.7014104,15 14,19.7009174 14,25.4993457 C14,31.2980419 18.7016784,36 24.5,36 C30.2983216,36 35,31.2980419 35,25.4993457 Z" id="Stroke-5901"></path>
                <path d="M19.9251512,12.2371208 C18.6002204,10.0965098 15.6870164,9.36836676 13.4075726,10.5957802 C11.1069206,11.8352017 10.3121409,14.6016829 11.6499789,16.7631472 C11.789171,16.9880317 12.0794184,17.0656228 12.3122592,16.9401929 L19.7371292,12.9404609 C19.9906407,12.8038958 20.0767003,12.4819697 19.9251512,12.2371208 Z M12.2807352,15.8213089 C11.5776291,14.2333555 12.2277489,12.3672632 13.8817658,11.476201 C15.5360408,10.5854226 17.6121903,10.9856574 18.7595391,12.3312169 L12.2807352,15.8213089 Z" id="Stroke-5902"></path>
                <path d="M37.3500285,16.7631354 C38.6879144,14.6014588 37.8929912,11.8347396 35.5923198,10.5966215 C33.3133974,9.36803329 30.3999465,10.0958573 29.0748415,12.2368833 C28.9233048,12.4817273 29.0093608,12.8036388 29.2628594,12.9402054 L36.6877293,16.9401867 C36.920576,17.0656276 37.2108371,16.9880326 37.3500285,16.7631354 Z M30.2404309,12.3309683 C31.3878392,10.9851969 33.4639835,10.5852785 35.1181036,11.4770299 C36.7722031,12.3671921 37.4223817,14.2332266 36.7192606,15.8212917 L30.2404309,12.3309683 Z" id="Stroke-5903"></path>
                <path d="M31.0527864,34.7236068 L33.0527864,38.7236068 C33.176281,38.970596 33.4766175,39.0707082 33.7236068,38.9472136 C33.970596,38.823719 34.0707082,38.5233825 33.9472136,38.2763932 L31.9472136,34.2763932 C31.823719,34.029404 31.5233825,33.9292918 31.2763932,34.0527864 C31.029404,34.176281 30.9292918,34.4766175 31.0527864,34.7236068 Z" id="Stroke-5904"></path>
                <path d="M17.0527864,34.2763932 L15.0527864,38.2763932 C14.9292918,38.5233825 15.029404,38.823719 15.2763932,38.9472136 C15.5233825,39.0707082 15.823719,38.970596 15.9472136,38.7236068 L17.9472136,34.7236068 C18.0707082,34.4766175 17.970596,34.176281 17.7236068,34.0527864 C17.4766175,33.9292918 17.176281,34.029404 17.0527864,34.2763932 Z" id="Stroke-5905"></path>
                <path d="M24.5,49 C38.0309764,49 49,38.0309764 49,24.5 C49,10.9690236 38.0309764,0 24.5,0 C10.9690236,0 0,10.9690236 0,24.5 C0,38.0309764 10.9690236,49 24.5,49 Z M24.5,48 C11.5213084,48 1,37.4786916 1,24.5 C1,11.5213084 11.5213084,1 24.5,1 C37.4786916,1 48,11.5213084 48,24.5 C48,37.4786916 37.4786916,48 24.5,48 Z" id="Oval"></path>
            </g>
        </g>
    </g>
</svg>