<svg xmlns="http://www.w3.org/2000/svg" viewBox="0 0 49.02 49.02"><defs><style>.cls-1,.cls-2{fill:none;stroke:#53565a;}.cls-1{stroke-linecap:round;stroke-linejoin:round;}</style></defs><title>53565A_Outlined_Asset 3013</title><g id="Layer_2" data-name="Layer 2"><g id="_53565A" data-name="53565A"><circle class="cls-1" cx="24.51" cy="24.51" r="24.01"/><path class="cls-2" d="M19.14,18.19A6.16,6.16,0,0,1,22,14.7s-.38-4.17,2.42-4.17c3.12,0,2.58,4.19,2.58,4.19s2.64,1.51,2.74,3.5Z"/><path class="cls-2" d="M21.89,12.95H14.76a1.67,1.67,0,0,0-1.71,1.71V36.79a1.67,1.67,0,0,0,1.71,1.71H34.26A1.67,1.67,0,0,0,36,36.79V14.65a1.67,1.67,0,0,0-1.71-1.71H27"/><line class="cls-1" x1="30.38" y1="23.34" x2="19.29" y2="23.34"/><line class="cls-1" x1="30.38" y1="26.53" x2="19.29" y2="26.53"/><line class="cls-1" x1="25.08" y1="29.72" x2="19.29" y2="29.72"/></g></g></svg>