<?xml version="1.0" encoding="UTF-8"?>
<svg width="49px" height="49px" viewBox="0 0 49 49" version="1.1" xmlns="http://www.w3.org/2000/svg" xmlns:xlink="http://www.w3.org/1999/xlink">
    <!-- Generator: Sketch 57.1 (83088) - https://sketch.com -->
    <title>Ticket_53565A_Outlined</title>
    <desc>Created with Sketch.</desc>
    <g id="Page-1" stroke="none" stroke-width="1" fill="none" fill-rule="evenodd">
        <g id="Exam-Calendar-Icons" transform="translate(-145.000000, -151.000000)" fill="#53565A" fill-rule="nonzero">
            <g id="Ticket_53565A_Outlined" transform="translate(145.000000, 151.000000)">
                <path d="M24.4995,-0.0003 C38.0306424,-0.0003 48.9995,10.9685576 48.9995,24.4997 C48.9995,38.0308424 38.0306424,48.9997 24.4995,48.9997 C10.9690155,48.9997 -0.0005,38.0305002 -0.0005,24.4997 C-0.0005,10.9688998 10.9690155,-0.0003 24.4995,-0.0003 Z M24.4995,0.9997 C11.5212938,0.9997 0.9995,11.521191 0.9995,24.4997 C0.9995,37.478209 11.5212938,47.9997 24.4995,47.9997 C37.4783576,47.9997 47.9995,37.4785576 47.9995,24.4997 C47.9995,11.5208424 37.4783576,0.9997 24.4995,0.9997 Z" id="Stroke-1"></path>
                <path d="M26.6270292,16.3635399 L27.834676,17.5882803 L27.1226176,18.2904006 L25.9149708,17.0656601 L26.6270292,16.3635399 Z M24.7169449,14.4269558 L25.4189449,15.1389558 L24.7068551,15.8410442 L24.0048551,15.1290442 L24.7169449,14.4269558 Z M33.8714911,23.7104057 L34.5734911,24.4234057 L33.8609089,25.1249943 L33.1589089,24.4119943 L33.8714911,23.7104057 Z M29.0423229,18.8130208 L30.2499697,20.0377613 L29.5379113,20.7398815 L28.3302645,19.5151411 L29.0423229,18.8130208 Z M30.7455581,21.964622 L31.953205,23.1893625 L32.6652634,22.4872422 L31.4576165,21.2625018 L30.7455581,21.964622 Z" id="Stroke-5"></path>
                <path d="M36.9386605,15.7514702 C36.744924,15.5550684 36.4287224,15.5526923 36.2320564,15.7461606 C35.4441264,16.5212787 34.1785701,16.5123751 33.4039583,15.7257724 C32.6280474,14.9402617 32.6369554,13.6738317 33.4230733,12.8973202 C33.6194072,12.7033854 33.6214941,12.387055 33.427736,12.1905467 L31.102736,9.83254673 C30.2579441,8.97477796 28.8661589,8.96472752 28.0085783,9.81063153 L9.75774152,27.7964706 C8.89991916,28.642613 8.88987455,30.0331888 9.73573153,30.8907217 L12.0616651,33.2496543 C12.2556002,33.4463408 12.5722808,33.4485101 12.7688922,33.2544989 C13.5552152,32.4785749 14.8206413,32.4872303 15.5968011,33.2737922 C16.372383,34.0597685 16.3634757,35.3263376 15.5773267,36.1028798 C15.3809928,36.2968146 15.3789059,36.613145 15.572664,36.8096533 L17.897664,39.1676533 C18.7415689,40.0258183 20.1323395,40.0350633 20.9905484,39.1898378 L39.2416585,21.2037294 C40.0999744,20.358379 40.110019,18.967814 39.2649378,18.1097516 L36.9386605,15.7514702 Z M16.3085989,32.5714078 C15.2642992,31.5131123 13.628769,31.393815 12.451677,32.2209186 L10.4477349,30.1885457 C9.98976581,29.7242549 9.99523697,28.9668275 10.4598217,28.5085685 L28.7106585,10.5227294 C29.1750024,10.0647079 29.9332206,10.0701832 30.3904622,10.5344484 L32.3939728,12.566396 C31.5512496,13.7328815 31.6477587,15.370834 32.6919798,16.4279733 C33.734428,17.4865591 35.3700557,17.6060044 36.5483894,16.7798048 L38.5527395,18.8117298 C39.0101334,19.2761499 39.0046623,20.0335728 38.5398474,20.4913663 L20.2887415,38.4774706 C19.8239115,38.9352684 19.0667034,38.9302349 18.6102029,38.4660209 L16.6064272,36.433804 C17.4491225,35.2673534 17.3526272,33.6294282 16.3085989,32.5714078 Z" id="Stroke-9"></path>
            </g>
        </g>
    </g>
</svg>